<svg viewBox="0 0 30 30" xmlns="http://www.w3.org/2000/svg" xml:space="preserve" style="fill-rule:evenodd;clip-rule:evenodd;stroke-linejoin:round;stroke-miterlimit:2"><path style="fill:none" d="M0 0h400v240H0z" transform="scale(.075 .125)"/><path d="M2.196 25.288c.194-5.907.686-5.86.58-11.76-.045-2.494.327-2.427 2.774-9.749 2.614 5.826 3.064 5.58 5.16 11.613.349-1.032 3.004-8.898 6.888-11.748.167 5.261-.023 5.202-.461 10.451 2.208-.553 2.195-.318 8.505-.492-3.783 1.956-4.272 1.611-6.114 5.482 4.478 2.083 4.641 1.821 8.39 5.01-5.524.224-5.434.839-10.953 1.086-13.33.596-13.713 1.335-13.818.681-.015-.09-.032-.047-.854.039" style="fill:#f3ce00" transform="rotate(.128)"/><path d="M2.537 27.383a1.5 1.5 0 0 1-1.742-1.56 1.474 1.474 0 0 1-.098-.584c.192-5.869.685-5.822.579-11.684-.047-2.619.282-2.565 2.852-10.251a1.5 1.5 0 0 1 2.791-.139c1.952 4.351 2.707 5.351 3.824 8.04 1.309-2.97 3.402-6.888 5.967-8.771a1.5 1.5 0 0 1 2.387 1.162c.146 4.6.026 5.2-.293 8.673 1.135-.097 2.651-.051 6.797-.165a1.5 1.5 0 0 1 .73 2.832c-2.819 1.457-3.6 1.433-4.752 3.439 3.329 1.505 3.848 1.632 7.311 4.578a1.498 1.498 0 0 1-.911 2.641c-5.521.224-5.431.838-10.947 1.085-8.499.38-11.716.819-12.957.915-.533.041-.854.014-1.052-.029l-.486-.182Zm1.191-2.92.23.133c1.277-.103 4.524-.537 12.94-.914 3.778-.169 4.929-.51 7.051-.78-1.302-.844-2.372-1.21-5.054-2.457a1.504 1.504 0 0 1-.722-2.005c.762-1.601 1.31-2.562 1.915-3.25-1.005.025-1.533.096-2.586.36a1.503 1.503 0 0 1-1.86-1.58c.293-3.505.474-4.604.509-6.568a24.018 24.018 0 0 0-1.241 2.033c-1.577 2.872-2.577 5.84-2.779 6.437a1.5 1.5 0 0 1-2.838.012c-1.562-4.496-2.203-5.467-3.529-8.135-1.268 3.534-1.522 3.871-1.488 5.752.101 5.631-.336 5.88-.548 10.962Zm.771.792.129.369a1.063 1.063 0 0 0-.129-.369Z" style="fill:#aa0404" transform="rotate(.128)"/></svg>