<svg viewBox="0 0 40 40" xmlns="http://www.w3.org/2000/svg" xml:space="preserve" style="fill-rule:evenodd;clip-rule:evenodd;stroke-linejoin:round;stroke-miterlimit:2"><path style="fill:#fff;fill-opacity:0" fill="none" d="M0 0h400v240H0z" transform="scale(.1 .16667)"/><circle cx="94.81" cy="87.335" r="15.2" transform="translate(-73.56 -63.743) scale(.98682)"/><path d="m17.63 2.56 15.167 4.063-1.998 7.457-15.166-4.064z"/><path d="M15.012 6.639c7.787.93 7.703 4.806 8.406 5.87" style="fill:#9a9a9a" transform="translate(5 7.44)"/><path d="M26.005 10.989a3 3 0 0 1-5.09 3.173l-.53-1.068c-.184-.478-.329-1.294-1.158-1.977-.853-.701-2.263-1.223-4.571-1.499a3 3 0 0 1 .712-5.958c4.473.535 6.856 1.973 8.267 3.36 1.502 1.477 2.37 3.969 2.37 3.969Z" style="fill:#fff" transform="translate(5 7.44)"/><path d="m21.005 20.341.156.138" style="fill:#636363" transform="translate(5 7.44)"/><path d="M19.019 22.589a3 3 0 0 1 3.972-4.496l.156.138a3 3 0 0 1-3.972 4.496l-.156-.138Z" style="fill:#fff" transform="translate(5 7.44)"/></svg>