<svg viewBox="0 0 100 20" xmlns="http://www.w3.org/2000/svg" xml:space="preserve" style="fill-rule:evenodd;clip-rule:evenodd;stroke-linejoin:round;stroke-miterlimit:2"><g transform="scale(.25 .08333)"><path style="fill:none" d="M0 0h400v240H0z"/><clipPath id="a"><path d="M0 0h400v240H0z"/></clipPath><g clip-path="url(#a)"><path style="fill:#ebebeb" d="M8.472 34.19h153.357v20.681H8.472z" transform="matrix(2.60735 0 0 11.6049 -21.946 -396.773)"/><path style="fill:#bebbbb" d="M8.845 5.743h48.113V10H8.845z" transform="scale(4 12) rotate(-45 24.084 29.249)"/><path style="fill:#bebbbb" d="M8.845 5.743h48.113V10H8.845z" transform="scale(4 12) rotate(-45 34.199 4.829)"/><path style="fill:#bebbbb" d="M8.845 5.743h48.113V10H8.845z" transform="scale(4 12) rotate(-45 43.457 -17.522)"/><path style="fill:#bebbbb" d="M8.845 5.743h48.113V10H8.845z" transform="scale(4 12) rotate(-45 52.715 -39.872)"/><path style="fill:#bebbbb" d="M8.845 5.743h48.113V10H8.845z" transform="scale(4 12) rotate(-45 61.973 -62.223)"/><path style="fill:#bebbbb" d="M8.845 5.743h48.113V10H8.845z" transform="scale(4 12) rotate(-45 71.23 -84.573)"/><path style="fill:#bebbbb" d="M8.845 5.743h48.113V10H8.845z" transform="scale(4 12) rotate(-45 8.741 44.394)"/></g></g></svg>