<svg viewBox="0 0 18 27" xmlns="http://www.w3.org/2000/svg" xml:space="preserve" style="fill-rule:evenodd;clip-rule:evenodd;stroke-linecap:round;stroke-linejoin:round;stroke-miterlimit:1.5"><g transform="matrix(.66667 0 0 .66667 0 .103)"><path style="fill:none" d="M0-.154h26.086v39.622H0z"/><clipPath id="a"><path d="M0-.154h26.086v39.622H0z"/></clipPath><g clip-path="url(#a)"><path d="M111.074 45.802v33.169c0 4.278-3.258 7.751-7.27 7.751H89.266c-4.012 0-7.27-3.473-7.27-7.751V45.802c0-4.277 3.258-7.75 7.27-7.75h14.538c4.012 0 7.27 3.473 7.27 7.75Z" style="fill:none;stroke:#c40000;stroke-width:7.93px" transform="matrix(.65045 0 0 .61006 -50.14 -37.368)"/><path d="M111.074 45.802v33.169c0 4.278-3.258 7.751-7.27 7.751H89.266c-4.012 0-7.27-3.473-7.27-7.751V45.802c0-4.277 3.258-7.75 7.27-7.75h14.538c4.012 0 7.27 3.473 7.27 7.75Z" style="fill:none;stroke:#c40000;stroke-width:7.93px" transform="matrix(.65045 0 0 .61006 -50.14 2.254)"/><path d="M111.074 41.549v41.675c0 1.931-3.258 3.498-7.27 3.498H89.266c-4.012 0-7.27-1.567-7.27-3.498V41.549c0-1.93 3.258-3.497 7.27-3.497h14.538c4.012 0 7.27 1.567 7.27 3.497Z" style="fill:none;stroke:#c40000;stroke-width:10.44px" transform="matrix(.29352 0 0 .61006 -15.685 -18.128)"/><path d="M111.074 41.549v41.675c0 1.931-3.258 3.498-7.27 3.498H89.266c-4.012 0-7.27-1.567-7.27-3.498V41.549c0-1.93 3.258-3.497 7.27-3.497h14.538c4.012 0 7.27 1.567 7.27 3.497Z" style="fill:none;stroke:#c40000;stroke-width:10.44px" transform="matrix(.29352 0 0 .61006 -15.685 -18.128)"/></g></g></svg>