<svg viewBox="0 0 427 320" xmlns="http://www.w3.org/2000/svg" xml:space="preserve" style="fill-rule:evenodd;clip-rule:evenodd;stroke-linejoin:round;stroke-miterlimit:2"><g transform="scale(1.06667 1.33333)"><path style="fill:none" d="M0 0h400v240H0z"/><clipPath id="a"><path d="M0 0h400v240H0z"/></clipPath><g clip-path="url(#a)"><path style="fill:#dbdbdb" d="M544.773 127.811h76.076V480h-76.076z" transform="scale(.625 .5)"/><path style="fill:#dadada" d="M30.174 127.811h170.831V480H30.174z" transform="scale(.625 .5)"/><path style="fill:#dadada" d="M30.174 127.811h170.831V480H30.174z" transform="matrix(1.0091 0 0 .5 109.726 48.61)"/><path style="fill:#b7b7b7" d="M14.15 182.103h120.693V480H14.15z" transform="matrix(.77791 0 0 .5 -32.153 0)"/><path style="fill:#9b9b9b" d="M14.15 182.103h120.693V480H14.15z" transform="matrix(1.05478 0 0 .5 47.051 48.61)"/><path style="fill:#b7b7b7" d="M14.15 182.103h120.693V480H14.15z" transform="matrix(.77791 0 0 .5 188.993 9.775)"/><path style="fill:#b7b7b7" d="M14.15 182.103h120.693V480H14.15z" transform="matrix(1.33536 0 0 .5 280.948 74.474)"/></g></g></svg>