<svg viewBox="0 0 400 400" xmlns="http://www.w3.org/2000/svg" xml:space="preserve" style="fill-rule:evenodd;clip-rule:evenodd;stroke-linecap:round;stroke-linejoin:round;stroke-miterlimit:1.5"><path style="fill:none" d="M0 0h400v240H0z" transform="scale(1 1.66667)"/><ellipse cx="187.064" cy="205.913" rx="150.481" ry="170.916" style="fill:url(#a);stroke:#000;stroke-width:1.62px" transform="matrix(1.31245 0 0 1.15554 -45.513 -37.94)"/><path d="M.411 0v-.025H.353c-.028 0-.047-.004-.058-.014-.014-.01-.02-.03-.02-.058v-.545H.261a.723.723 0 0 1-.203.056v.024a.325.325 0 0 0 .037.001.21.21 0 0 1 .088.012c.014.009.021.026.021.05v.405c0 .024-.005.041-.015.051-.012.012-.033.018-.062.018H.069V0h.342Z" style="fill-rule:nonzero" transform="matrix(60 0 0 60.00012 170.75 56.938)"/><path d="M.448-.161.422-.167a.225.225 0 0 1-.042.075.116.116 0 0 1-.085.03H.073a.971.971 0 0 1 .202-.193.73.73 0 0 0 .126-.113.175.175 0 0 0 .041-.111c0-.05-.02-.09-.06-.121a.23.23 0 0 0-.14-.042.207.207 0 0 0-.153.058.143.143 0 0 0-.049.103.06.06 0 0 0 .011.037c.01.015.024.022.042.022A.049.049 0 0 0 .13-.436a.05.05 0 0 0 .014-.035.088.088 0 0 0-.013-.036.069.069 0 0 1-.014-.037c0-.018.01-.033.031-.047a.146.146 0 0 1 .078-.02c.042 0 .075.013.099.038a.12.12 0 0 1 .032.083c0 .03-.006.055-.017.076a.53.53 0 0 1-.088.106 1.969 1.969 0 0 0-.232.274V0h.388l.04-.161Z" style="fill-rule:nonzero" transform="matrix(60 0 0 60.00012 198.89 56.938)"/><path d="M.454-.211a.186.186 0 0 0-.056-.14.17.17 0 0 0-.119-.047c-.059 0-.116.032-.171.095L.106-.305A.55.55 0 0 1 .142-.51c.03-.067.072-.101.126-.101.018 0 .031.005.04.014a.089.089 0 0 1 .013.029c.011.038.029.056.055.056.032 0 .048-.015.048-.045 0-.026-.015-.047-.045-.064a.194.194 0 0 0-.091-.021.227.227 0 0 0-.19.106.428.428 0 0 0-.077.258c0 .09.021.161.063.213a.195.195 0 0 0 .161.079c.06 0 .11-.021.15-.065a.233.233 0 0 0 .059-.16Zm-.085.009c0 .124-.043.186-.127.186-.086 0-.132-.08-.136-.242.046-.064.097-.097.151-.097.045 0 .077.022.096.064a.24.24 0 0 1 .016.089Z" style="fill-rule:nonzero" transform="matrix(60 0 0 60.00012 185.75 384.958)"/><path d="M.443-.162c0-.086-.059-.144-.176-.172v-.002a.366.366 0 0 0 .102-.051.13.13 0 0 0 .054-.107.129.129 0 0 0-.063-.113.244.244 0 0 0-.131-.035.217.217 0 0 0-.137.042c-.033.025-.049.053-.049.084 0 .014.004.026.014.034a.048.048 0 0 0 .035.013.047.047 0 0 0 .032-.013.04.04 0 0 0 .015-.03L.137-.556a.05.05 0 0 1 .011-.031c.014-.017.038-.026.074-.026.042 0 .074.015.094.045.014.022.022.05.022.082a.14.14 0 0 1-.035.1.116.116 0 0 1-.111.034.33.33 0 0 0-.025-.003c-.016 0-.023.007-.023.019 0 .013.006.019.02.019l.01-.001.016-.001a.136.136 0 0 1 .121.035.16.16 0 0 1 .047.121.145.145 0 0 1-.036.103C.296-.03.258-.016.21-.016A.13.13 0 0 1 .143-.03C.125-.04.117-.053.117-.069l.002-.023.002-.023a.057.057 0 0 0-.013-.036.05.05 0 0 0-.036-.015.046.046 0 0 0-.037.016.051.051 0 0 0-.014.036c0 .029.014.056.042.08a.225.225 0 0 0 .154.048.262.262 0 0 0 .157-.044.152.152 0 0 0 .069-.132Z" style="fill-rule:nonzero" transform="matrix(60 0 0 60.00012 358.325 218.84)"/><path d="M.448-.349a.342.342 0 0 0-.064-.215.198.198 0 0 0-.16-.078.194.194 0 0 0-.15.065.23.23 0 0 0-.059.161.18.18 0 0 0 .056.14.164.164 0 0 0 .119.047c.058 0 .115-.031.171-.095l.002.002a.543.543 0 0 1-.036.205c-.03.068-.072.101-.126.101-.027 0-.045-.014-.053-.043C.136-.096.118-.115.093-.115.061-.115.045-.1.045-.07c0 .026.015.047.045.063a.19.19 0 0 0 .091.021c.076 0 .139-.035.19-.106a.426.426 0 0 0 .077-.257ZM.362-.37c-.048.064-.099.096-.151.096a.097.097 0 0 1-.096-.063.223.223 0 0 1-.016-.09c0-.123.042-.185.127-.185.086 0 .131.081.136.242Z" style="fill-rule:nonzero" transform="matrix(60 0 0 60.00012 11.758 218.84)"/><ellipse cx="-95.281" cy="181.886" rx="16.252" ry="18.114" transform="matrix(.92294 0 0 .82808 287.938 49.385)"/><path d="M.665-.257v-.026H.393v.026c.045.001.073.007.085.017.012.011.018.04.018.088 0 .048-.012.083-.034.103-.028.026-.067.038-.117.038A.189.189 0 0 1 .18-.094C.144-.143.127-.221.127-.328c0-.044.005-.088.017-.132a.27.27 0 0 1 .04-.093c.041-.056.092-.085.153-.085.07 0 .147.05.229.148l.026-.009-.065-.164a.207.207 0 0 1-.068.018.307.307 0 0 1-.052-.011.272.272 0 0 0-.296.096.385.385 0 0 0-.088.252c0 .096.031.175.093.236.06.06.134.09.223.09a.46.46 0 0 0 .118-.022.739.739 0 0 1 .068-.017l.057-.004v-.171c0-.026.009-.043.027-.052a.155.155 0 0 1 .056-.009Z" style="fill-rule:nonzero" transform="matrix(12 0 0 12.00002 178.663 313.375)"/><path d="M.654-.326a.345.345 0 0 0-.092-.243.3.3 0 0 0-.224-.098.29.29 0 0 0-.225.1.353.353 0 0 0-.09.242c0 .099.032.182.098.248a.297.297 0 0 0 .222.095.285.285 0 0 0 .221-.1.352.352 0 0 0 .09-.244ZM.55-.337c0 .108-.02.19-.058.244a.179.179 0 0 1-.152.082.18.18 0 0 1-.168-.105.535.535 0 0 1-.017-.382c.034-.093.095-.14.183-.14.078 0 .136.038.174.114a.44.44 0 0 1 .038.187Z" style="fill-rule:nonzero" transform="matrix(12 0 0 12.00002 186.788 313.375)"/><path d="M.606-.173c0-.087-.073-.144-.218-.172v-.001c.12-.031.18-.083.18-.155 0-.054-.032-.094-.094-.12a.434.434 0 0 0-.159-.028H.01v.025c.029 0 .05.003.063.008.022.009.033.026.033.052v.47c0 .03-.009.05-.027.059a.171.171 0 0 1-.069.01V0h.347c.054 0 .104-.01.149-.031.066-.03.1-.077.1-.142ZM.469-.495c0 .051-.019.088-.057.112a.183.183 0 0 1-.103.028H.194v-.207c0-.027.009-.045.029-.054a.18.18 0 0 1 .063-.008c.052 0 .091.006.117.017.044.02.066.057.066.112Zm.033.323c0 .06-.022.101-.064.123a.296.296 0 0 1-.135.024.202.202 0 0 1-.085-.012C.202-.045.194-.062.194-.086V-.33h.114c.055 0 .1.012.134.035a.14.14 0 0 1 .06.123Z" style="fill-rule:nonzero" transform="matrix(12 0 0 12.00002 194.912 313.375)"/><path d="M.567-.165.54-.173a.513.513 0 0 1-.108.105.277.277 0 0 1-.156.043c-.028 0-.049-.004-.062-.013C.2-.046.194-.062.194-.085v-.471c0-.028.008-.047.025-.057a.206.206 0 0 1 .074-.011v-.025H.01v.025h.025c.047 0 .071.02.071.059v.476c0 .029-.01.048-.03.056a.172.172 0 0 1-.066.009V0h.495l.062-.165Z" style="fill-rule:nonzero" transform="matrix(12 0 0 12.00002 202.412 313.375)"/><path d="M.295 0v-.025a.189.189 0 0 1-.064-.007C.21-.04.2-.058.2-.084v-.47c0-.029.008-.048.024-.058a.17.17 0 0 1 .071-.012v-.025H.017v.025c.029 0 .05.003.063.007.021.008.032.025.032.051v.473c0 .046-.023.068-.067.068H.017V0h.278Z" style="fill-rule:nonzero" transform="matrix(12 0 0 12.00002 209.288 313.375)"/><path d="M.669-.624v-.025H.46v.025c.057.003.086.031.086.084v.398H.544L.172-.649H.007v.025a.179.179 0 0 1 .096.039v.474c0 .056-.032.084-.096.086V0H.24v-.025C.172-.027.139-.055.139-.111v-.445h.002l.422.574h.019V-.54c0-.054.029-.082.087-.084Z" style="fill-rule:nonzero" transform="matrix(12 0 0 12.00002 213.032 313.375)"/><defs><linearGradient id="a" x1="0" y1="0" x2="1" y2="0" gradientUnits="userSpaceOnUse" gradientTransform="matrix(221.853 -230.263 202.732 251.98 76.742 318.854)"><stop offset="0" style="stop-color:#d8d8d8;stop-opacity:1"/><stop offset="1" style="stop-color:#d8d8d8;stop-opacity:1"/></linearGradient></defs></svg>