<svg viewBox="0 0 320 54" xmlns="http://www.w3.org/2000/svg" xml:space="preserve" style="fill-rule:evenodd;clip-rule:evenodd;stroke-linejoin:round;stroke-miterlimit:2"><g transform="scale(.8 .22222)"><path style="fill:none" d="M0 0h400v240H0z"/><clipPath id="a"><path d="M0 0h400v240H0z"/></clipPath><g clip-path="url(#a)"><path style="fill:#4b0606" d="M19.576 85.626h126.72v61.443H19.576z" transform="matrix(3.15656 0 0 3.90608 -61.793 -334.463)"/><path style="fill:#c40000" d="M29.626 23.266h142.638V40H29.626z" transform="scale(.83333 3) rotate(-45 78.324 87.205)"/><path style="fill:#c40000" d="M29.626 23.266h142.638V40H29.626z" transform="scale(-.83333 -3) rotate(45 67.995 -264.878)"/><path style="fill:#c40000" d="M29.626 23.266h142.638V40H29.626z" transform="scale(.83333 3) rotate(-45 155.324 -98.69)"/><path style="fill:#c40000" d="M29.626 23.266h142.638V40H29.626z" transform="scale(-.83333 -3) rotate(45 -9.005 -450.773)"/><path style="fill:#c40000" d="M29.626 23.266h142.638V40H29.626z" transform="scale(.83333 3) rotate(-45 231.824 -283.376)"/><path style="fill:#c40000" d="M29.626 23.266h142.638V40H29.626z" transform="scale(-.83333 -3) rotate(45 -85.505 -635.46)"/><path style="fill:#c40000" d="M0 0h109.759v14.772H0z" transform="matrix(3.64433 0 0 2.44066 0 0)"/><path style="fill:#c40000" d="M0 0h109.759v14.772H0z" transform="matrix(3.64433 0 0 2.44066 0 203.947)"/><path style="fill:url(#b)" d="M0 12.018h240v55.965H0z" transform="scale(1.66667 3)"/></g></g><defs><linearGradient id="b" x1="0" y1="0" x2="1" y2="0" gradientUnits="userSpaceOnUse" gradientTransform="matrix(-.0985 55.9646 -3.26253 -.02297 120.098 12.018)"><stop offset="0" style="stop-color:black;stop-opacity:.1"/><stop offset=".5" style="stop-color:black;stop-opacity:0"/><stop offset="1" style="stop-color:black;stop-opacity:.21"/></linearGradient></defs></svg>